<?xml version="1.0" encoding="UTF-8"?>
<svg xmlns="http://www.w3.org/2000/svg" xmlns:xlink="http://www.w3.org/1999/xlink" width="32px" height="32px" viewBox="0 0 32 32" version="1.1">
<g id="surface1">
<path style=" stroke:none;fill-rule:nonzero;fill:rgb(0%,0%,0%);fill-opacity:1;" d="M 14.867188 0.265625 C 14.027344 0.351562 12.785156 0.65625 11.816406 1.019531 C 9.90625 1.722656 7.945312 3.1875 6.5 4.984375 C 4.984375 6.871094 4.128906 8.957031 3.613281 12.027344 C 3.457031 12.921875 3.398438 13.394531 3.164062 15.554688 C 2.746094 19.300781 2.519531 20.890625 2.125 22.75 C 2.015625 23.269531 1.859375 24.011719 1.777344 24.402344 C 1.566406 25.40625 1.515625 26.007812 1.585938 26.550781 C 1.667969 27.21875 1.859375 27.75 2.183594 28.207031 C 2.792969 29.066406 3.453125 29.511719 4.546875 29.804688 C 4.90625 29.902344 5.050781 29.917969 5.648438 29.921875 C 6.167969 29.925781 6.414062 29.90625 6.652344 29.847656 C 7.34375 29.679688 7.882812 29.421875 8.476562 28.976562 C 8.703125 28.800781 8.90625 28.65625 8.921875 28.65625 C 8.941406 28.65625 9.179688 28.886719 9.453125 29.164062 C 10.144531 29.875 10.804688 30.296875 11.683594 30.589844 C 12.605469 30.898438 13.984375 30.847656 14.84375 30.476562 C 15.164062 30.332031 15.738281 29.96875 16.113281 29.671875 C 16.265625 29.546875 16.417969 29.429688 16.445312 29.414062 C 16.480469 29.390625 16.617188 29.492188 16.832031 29.6875 C 17.417969 30.230469 17.898438 30.5 18.648438 30.71875 C 19.191406 30.878906 19.507812 30.90625 20.167969 30.847656 C 21.460938 30.746094 22.15625 30.433594 23.171875 29.492188 L 23.601562 29.09375 L 23.957031 29.332031 C 24.574219 29.730469 25.15625 29.925781 25.933594 29.984375 C 27.625 30.113281 29.167969 29.300781 29.863281 27.917969 C 30.097656 27.457031 30.199219 27.023438 30.230469 26.402344 C 30.265625 25.761719 30.207031 25.425781 29.882812 24.253906 C 28.917969 20.789062 28.613281 19.136719 28.207031 15.125 C 27.878906 11.917969 27.734375 10.929688 27.386719 9.53125 C 26.882812 7.527344 26.113281 5.878906 25.050781 4.53125 C 24.695312 4.078125 23.875 3.253906 23.394531 2.863281 C 22.46875 2.109375 21.152344 1.351562 20.089844 0.964844 C 18.480469 0.378906 16.425781 0.101562 14.867188 0.265625 Z M 17.15625 1.867188 C 18.238281 1.996094 19.125 2.210938 19.992188 2.5625 C 23.148438 3.828125 25.207031 6.621094 26.03125 10.746094 C 26.285156 12.027344 26.402344 12.902344 26.636719 15.488281 C 26.890625 18.210938 27.039062 19.277344 27.410156 21.03125 C 27.644531 22.109375 27.789062 22.683594 28.226562 24.167969 C 28.648438 25.605469 28.722656 25.984375 28.683594 26.484375 C 28.632812 27.101562 28.382812 27.570312 27.914062 27.921875 C 27.09375 28.542969 26.117188 28.644531 25.242188 28.207031 C 25.078125 28.125 24.746094 27.902344 24.511719 27.710938 C 23.984375 27.28125 23.800781 27.1875 23.542969 27.1875 C 23.230469 27.1875 23.042969 27.316406 22.445312 27.949219 C 21.820312 28.609375 21.511719 28.863281 21.074219 29.074219 C 20.636719 29.28125 20.222656 29.359375 19.699219 29.332031 C 18.875 29.285156 18.355469 29.035156 17.464844 28.253906 C 16.910156 27.769531 16.734375 27.667969 16.40625 27.667969 C 16.09375 27.667969 15.828125 27.800781 15.40625 28.167969 C 14.851562 28.652344 14.605469 28.828125 14.242188 29.003906 C 13.796875 29.222656 13.503906 29.273438 12.867188 29.246094 C 12.425781 29.230469 12.304688 29.207031 12.007812 29.089844 C 11.816406 29.019531 11.566406 28.898438 11.449219 28.824219 C 11.328125 28.757812 10.839844 28.292969 10.355469 27.800781 C 9.867188 27.308594 9.410156 26.875 9.328125 26.832031 C 9.164062 26.75 8.886719 26.738281 8.699219 26.808594 C 8.53125 26.875 8.273438 27.0625 7.734375 27.515625 C 6.621094 28.445312 5.515625 28.628906 4.351562 28.074219 C 3.726562 27.773438 3.273438 27.148438 3.175781 26.445312 C 3.105469 25.949219 3.167969 25.480469 3.464844 24.125 C 4.03125 21.511719 4.363281 19.355469 4.789062 15.488281 C 5.160156 12.144531 5.410156 10.761719 5.921875 9.28125 C 6.15625 8.601562 6.3125 8.246094 6.660156 7.574219 C 7.253906 6.433594 7.808594 5.6875 8.769531 4.746094 C 9.683594 3.859375 10.320312 3.40625 11.40625 2.878906 C 12.679688 2.265625 13.695312 1.984375 15.210938 1.835938 C 15.617188 1.792969 16.664062 1.8125 17.15625 1.867188 Z M 17.15625 1.867188 "/>
<path style=" stroke:none;fill-rule:nonzero;fill:rgb(0%,0%,0%);fill-opacity:1;" d="M 19.828125 9.8125 C 19.171875 10.101562 18.820312 11.324219 19.078125 12.40625 C 19.21875 13 19.421875 13.304688 19.785156 13.472656 C 20.015625 13.585938 20.289062 13.601562 20.542969 13.535156 C 20.894531 13.433594 21.242188 12.964844 21.375 12.414062 C 21.457031 12.058594 21.457031 11.273438 21.375 10.921875 C 21.253906 10.410156 20.964844 9.980469 20.644531 9.835938 C 20.441406 9.738281 20.015625 9.730469 19.828125 9.8125 Z M 19.828125 9.8125 "/>
<path style=" stroke:none;fill-rule:nonzero;fill:rgb(0%,0%,0%);fill-opacity:1;" d="M 10.804688 10.046875 C 10.441406 10.222656 10.183594 10.605469 10.070312 11.132812 C 9.976562 11.566406 10.011719 12.371094 10.136719 12.765625 C 10.351562 13.4375 10.886719 13.804688 11.464844 13.667969 C 11.742188 13.597656 11.953125 13.417969 12.140625 13.074219 C 12.347656 12.703125 12.417969 12.414062 12.417969 11.859375 C 12.417969 10.683594 12.019531 10.058594 11.230469 9.988281 C 11.035156 9.96875 10.9375 9.980469 10.804688 10.046875 Z M 10.804688 10.046875 "/>
<path style=" stroke:none;fill-rule:nonzero;fill:rgb(0%,0%,0%);fill-opacity:1;" d="M 17.347656 13.675781 C 17.261719 13.710938 17.042969 13.824219 16.855469 13.9375 C 16.40625 14.203125 16.0625 14.308594 15.621094 14.308594 C 15.195312 14.304688 14.957031 14.226562 14.496094 13.941406 C 14.195312 13.753906 14.125 13.726562 13.878906 13.714844 C 13.648438 13.707031 13.566406 13.71875 13.429688 13.800781 C 12.960938 14.070312 12.980469 14.679688 13.464844 15.109375 C 14.03125 15.613281 14.953125 15.886719 15.910156 15.84375 C 16.320312 15.824219 16.445312 15.800781 16.785156 15.671875 C 17.476562 15.410156 17.972656 15.046875 18.175781 14.652344 C 18.464844 14.078125 17.9375 13.460938 17.347656 13.675781 Z M 17.347656 13.675781 "/>
</g>
</svg>
